IKResults
version=1
nRows=10
nColumns=40
inDegrees=yes

Units are S.I. units (second, meters, Newtons, ...)
If the header above contains a line with 'inDegrees', this indicates whether rotational values are in degrees (yes) or radians (no).

endheader
time	pelvis_tilt	pelvis_list	pelvis_rotation	pelvis_tx	pelvis_ty	pelvis_tz	hip_flexion_r	hip_adduction_r	hip_rotation_r	knee_angle_r	knee_angle_r_beta	ankle_angle_r	subtalar_angle_r	mtp_angle_r	hip_flexion_l	hip_adduction_l	hip_rotation_l	knee_angle_l	knee_angle_l_beta	ankle_angle_l	subtalar_angle_l	mtp_angle_l	lumbar_extension	lumbar_bending	lumbar_rotation	arm_flex_r	arm_add_r	arm_rot_r	elbow_flex_r	pro_sup_r	wrist_flex_r	wrist_dev_r	arm_flex_l	arm_add_l	arm_rot_l	elbow_flex_l	pro_sup_l	wrist_flex_l	wrist_dev_l
      3.10000000	     -1.15797648	      2.00345306	     -2.95056059	      1.38807501	      1.05188810	      0.30873390	     22.95196177	     -5.25217637	     -0.25295411	     50.17061874	      0.87564248	     -0.11033278	    -15.69016122	      0.00000000	     11.91081550	      6.10101214	      4.92723586	     17.61719705	      0.30747809	      8.63112705	     -5.49264553	      0.00000000	    -18.22516457	     -5.13886808	     -4.73001734	    -17.69519475	    -10.76510303	     13.91762597	     38.60862597	     76.11647139	      0.00000000	      0.00000000	      0.18901883	    -15.42723562	     -5.93439984	     65.00192473	     68.75463091	      0.00000000	      0.00000000
      3.11000000	     -1.10230702	      1.88242635	     -2.23019686	      1.40143053	      1.05303357	      0.30797968	     23.57638041	     -5.32665167	     -1.22159646	     47.84589467	      0.83506840	      0.03815491	    -16.44071178	      0.00000000	     10.47285561	      6.20725493	      6.23471803	     16.66930376	      0.29093423	      8.90187852	     -5.63044310	      0.00000000	    -18.31997867	     -4.74021549	     -5.39627532	    -18.01398732	    -10.45971106	     13.30903302	     38.55747019	     75.73955317	      0.00000000	      0.00000000	      0.26387961	    -15.90914390	     -6.06600303	     66.72703957	     68.43905825	      0.00000000	      0.00000000
      3.12000000	     -1.44687861	      2.01478085	     -2.15766407	      1.41442914	      1.05309710	      0.30763479	     24.83843751	     -5.50807152	     -1.66117547	     45.58130204	      0.79554380	      0.29123555	    -16.48941758	      0.00000000	      9.66346123	      6.41221851	      6.48635992	     16.03357430	      0.27983866	      9.26505339	     -5.69741142	      0.00000000	    -17.91043534	     -4.71768414	     -5.36405292	    -18.37015544	    -10.34783679	     13.19907888	     38.49343794	     75.64499856	      0.00000000	      0.00000000	      0.55304161	    -16.31203796	     -5.91203463	     67.85786492	     68.42687851	      0.00000000	      0.00000000
      3.13000000	     -1.30160127	      1.81748150	     -1.51355808	      1.42795175	      1.05384337	      0.30700207	     25.19985413	     -5.58647258	     -2.77117743	     43.03284065	      0.75106476	      0.56820460	    -16.31777096	      0.00000000	      8.13079772	      6.35387172	      7.58059128	     15.08589301	      0.26329850	      9.38131513	     -5.81857821	      0.00000000	    -18.08371051	     -4.25142087	     -5.84429635	    -18.63746430	    -10.09555080	     12.75910568	     38.33086886	     75.22523333	      0.00000000	      0.00000000	      0.74604098	    -16.68171498	     -5.97309398	     69.23198457	     68.07398611	      0.00000000	      0.00000000
      3.14000000	     -1.22235918	      1.78877765	     -1.09112625	      1.44133831	      1.05413618	      0.30645492	     25.66716265	     -5.75914304	     -3.65647361	     40.43728111	      0.70576370	      0.79520211	    -15.64993643	      0.00000000	      6.81704061	      6.45116788	      8.48069822	     14.39911251	      0.25131192	      9.80472881	     -6.22980166	      0.00000000	    -18.16201816	     -3.99659778	     -6.14369724	    -18.88581291	     -9.97141440	     12.62455391	     38.30306268	     74.84647594	      0.00000000	      0.00000000	      1.01715399	    -17.09129446	     -5.84829822	     70.33575423	     67.63090699	      0.00000000	      0.00000000
      3.15000000	     -1.28314651	      1.83107512	     -0.74092926	      1.45471154	      1.05383066	      0.30598522	     26.31085145	     -5.97891813	     -4.44594451	     37.84337545	      0.66049150	      0.78819141	    -14.61212487	      0.00000000	      5.69551213	      6.60962610	      9.43795217	     13.82361011	      0.24126751	      9.91743322	     -6.80855665	      0.00000000	    -18.07904272	     -3.83561942	     -6.37528730	    -19.14217996	     -9.81042549	     12.39281100	     38.22257576	     74.43780211	      0.00000000	      0.00000000	      1.23395933	    -17.45696742	     -5.76657183	     71.42919093	     67.29158738	      0.00000000	      0.00000000
      3.16000000	     -1.35953293	      1.91815026	     -0.39371112	      1.46806373	      1.05326627	      0.30551907	     26.91367930	     -6.27011712	     -5.39880551	     35.25221339	      0.61526719	      0.85700229	    -13.39105152	      0.00000000	      4.55718965	      6.78852308	     10.37231278	     13.13419115	      0.22923488	     10.16169423	     -7.35887166	      0.00000000	    -17.97983643	     -3.72341689	     -6.63282561	    -19.32656972	     -9.66467473	     12.26998622	     38.04848102	     74.08831827	      0.00000000	      0.00000000	      1.41995590	    -17.81014224	     -5.71611594	     72.45563460	     67.01247806	      0.00000000	      0.00000000
      3.17000000	     -1.49290342	      2.03057902	     -0.08987087	      1.48144669	      1.05231379	      0.30525301	     27.59656308	     -6.48128020	     -6.09748004	     32.72611927	      0.57117853	      0.71625813	    -12.03476074	      0.00000000	      3.50414392	      6.92718051	     10.94353535	     12.51584583	      0.21844272	     10.56679185	     -7.48247138	      0.00000000	    -17.81601356	     -3.66480317	     -6.86012536	    -19.48973216	     -9.49649110	     12.09945244	     37.84337582	     73.87044092	      0.00000000	      0.00000000	      1.56284006	    -18.13588920	     -5.73866342	     73.40655329	     66.88676395	      0.00000000	      0.00000000
      3.18000000	     -1.41955644	      2.10839706	      0.35347484	      1.49505982	      1.05146789	      0.30482145	     27.90316819	     -6.78696255	     -7.25860937	     30.13534171	      0.52596093	      1.02825496	    -10.00643900	      0.00000000	      2.26506520	      7.02253556	     11.80275511	     11.97893509	      0.20907186	     10.94734860	     -7.61708268	      0.00000000	    -17.87827079	     -3.53409053	     -7.20061183	    -19.62361464	     -9.37241020	     12.06833851	     37.69543616	     73.63362825	      0.00000000	      0.00000000	      1.72398520	    -18.46651191	     -5.70569620	     74.28027411	     66.71606184	      0.00000000	      0.00000000
      3.19000000	     -1.50440062	      2.15260334	      0.87905437	      1.50839307	      1.05013754	      0.30428388	     28.33336593	     -7.06526410	     -8.36466766	     27.55751306	      0.48096934	      1.54897930	     -7.53154076	      0.00000000	      1.29438317	      7.06516569	     12.52008647	     11.61459360	      0.20271290	     11.42899352	     -7.62147892	      0.00000000	    -17.79376499	     -3.34254015	     -7.59472591	    -19.71748396	     -9.26065789	     12.06444190	     37.48367832	     73.41207332	      0.00000000	      0.00000000	      1.88341891	    -18.75546864	     -5.68509297	     75.03844715	     66.59292898	      0.00000000	      0.00000000
